# xmcd
#
# Track frame offsets:
# 150
# 13667
# 26389
# 38915
# 51651
# 64454
# 77391
# 88809
# 101352
# 113829
# 127222
# 138954
# 151043
# 163757
# 176944
#
# Disc length: 2516 seconds
#
#
# Revision: 0
# Processed by: cddbd v1.5.1PL2 Copyright (c) Steve Scherf et al.
# Submitted via: FreeRIP 2.944 
#
DISCID=c809d20f
DTITLE=Hank Williams - The Very  Best Of  Vol. 2
DYEAR=1900
DGENRE=Country
TTITLE0=Hey Good Lookin'
TTITLE1=Honky Tonkin'
TTITLE2=The Blues Come Around
TTITLE3=I saw The Light
TTITLE4=Move It On Over
TTITLE5=I'm So Lonesome I Could Cry
TTITLE6=Crazy Heart
TTITLE7=Howlin' At The Moon
TTITLE8=Cold Cold Heart
TTITLE9=Jambalaya (On The Bayou)
TTITLE10=Nobody's Lonesome For Me
TTITLE11=You Win Again
TTITLE12=I Won't Be Home No More
TTITLE13=I can't Get You Off My Mind
TTITLE14=Dear John
EXTD=STP006\nLegacy
EXTT0=
EXTT1=
EXTT2=
EXTT3=
EXTT4=
EXTT5=
EXTT6=
EXTT7=
EXTT8=
EXTT9=
EXTT10=
EXTT11=
EXTT12=
EXTT13=
EXTT14=
PLAYORDER=
